<svg width="77" height="66" viewBox="0 0 77 66" fill="none" xmlns="http://www.w3.org/2000/svg">
<path fill-rule="evenodd" clip-rule="evenodd" d="M48.064 45.342L65.432 64.456C66.392 65.416 67.448 65.896 68.6 65.896H72.248C73.08 65.896 73.848 65.672 74.552 65.224C75.32 64.712 75.864 64.04 76.184 63.208C76.504 62.44 76.6 61.64 76.472 60.808C76.408 59.912 76.056 59.144 75.416 58.504L53.432 34.408C52.856 33.768 52.856 33.16 53.432 32.584L75.416 8.392C76.056 7.688 76.408 6.92 76.472 6.088C76.6 5.192 76.504 4.36 76.184 3.592C75.416 1.864 74.104 1 72.248 1H68.696C67.48 1 66.392 1.48 65.432 2.44L48.064 21.554V45.342Z" fill="#F37D31"/>
<path d="M43.872 52.224C43.872 54.528 43.296 56.64 42.144 58.56C40.992 60.48 39.456 62.016 37.536 63.168C35.616 64.32 33.504 64.896 31.2 64.896H12.768C10.464 64.896 8.32 64.32 6.336 63.168C4.416 62.016 2.88 60.48 1.728 58.56C0.576 56.64 0 54.528 0 52.224V12.768C0 10.4 0.576 8.256 1.728 6.336C2.88 4.416 4.416 2.88 6.336 1.728C8.32 0.576 10.464 0 12.768 0H31.2C33.504 0 35.616 0.576 37.536 1.728C39.456 2.88 40.992 4.416 42.144 6.336C43.296 8.256 43.872 10.4 43.872 12.768V15.36C43.872 16.576 43.424 17.6 42.528 18.432C41.696 19.264 40.672 19.68 39.456 19.68H36.864C35.648 19.68 34.592 19.264 33.696 18.432C32.864 17.6 32.448 16.576 32.448 15.36V12.768C32.448 11.872 32.032 11.424 31.2 11.424H12.768C12.448 11.424 12.128 11.552 11.808 11.808C11.552 12.064 11.424 12.384 11.424 12.768V52.224C11.424 52.544 11.552 52.864 11.808 53.184C12.128 53.44 12.448 53.568 12.768 53.568H31.2C31.52 53.568 31.808 53.44 32.064 53.184C32.32 52.864 32.448 52.544 32.448 52.224V39.36C32.448 38.592 32.064 38.208 31.296 38.208H24.48C23.264 38.208 22.208 37.792 21.312 36.96C20.48 36.064 20.064 35.008 20.064 33.792V31.104C20.064 29.888 20.48 28.864 21.312 28.032C22.208 27.2 23.264 26.784 24.48 26.784H39.456C40.672 26.784 41.696 27.2 42.528 28.032C43.424 28.864 43.872 29.888 43.872 31.104V52.224Z" fill="#0084FF"/>
</svg>
