<svg width="405" height="102" viewBox="0 0 405 102" fill="none" xmlns="http://www.w3.org/2000/svg">
<path d="M72.2476 18.104C74.1035 18.104 75.4161 18.9679 76.1841 20.6958C76.5041 21.4638 76.6002 22.2959 76.4722 23.1919C76.4082 24.0239 76.0556 24.7916 75.4156 25.4956L53.4322 49.688C52.8562 50.264 52.8562 50.8722 53.4322 51.5122L75.4156 75.6079C76.0555 76.2478 76.4081 77.0158 76.4722 77.9116C76.6002 78.7436 76.5041 79.544 76.1841 80.312C75.8642 81.1439 75.3201 81.8157 74.5523 82.3276C73.8483 82.7756 73.0796 83.0005 72.2476 83.0005H68.6001C67.4482 83.0005 66.3921 82.52 65.4322 81.5601L48.064 62.4458V38.6577L65.4322 19.5444C66.3921 18.5845 67.4799 18.104 68.6958 18.104H72.2476Z" fill="#F37D31"/>
<path d="M43.872 69.328C43.872 71.632 43.296 73.744 42.144 75.664C40.992 77.584 39.456 79.12 37.536 80.272C35.616 81.424 33.504 82 31.2 82H12.768C10.464 82 8.32 81.424 6.336 80.272C4.416 79.12 2.88 77.584 1.728 75.664C0.576 73.744 0 71.632 0 69.328V29.872C0 27.504 0.576 25.36 1.728 23.44C2.88 21.52 4.416 19.984 6.336 18.832C8.32 17.68 10.464 17.104 12.768 17.104H31.2C33.504 17.104 35.616 17.68 37.536 18.832C39.456 19.984 40.992 21.52 42.144 23.44C43.296 25.36 43.872 27.504 43.872 29.872V32.464C43.872 33.68 43.424 34.704 42.528 35.536C41.696 36.368 40.672 36.784 39.456 36.784H36.864C35.648 36.784 34.592 36.368 33.696 35.536C32.864 34.704 32.448 33.68 32.448 32.464V29.872C32.448 28.976 32.032 28.528 31.2 28.528H12.768C12.448 28.528 12.128 28.656 11.808 28.912C11.552 29.168 11.424 29.488 11.424 29.872V69.328C11.424 69.648 11.552 69.968 11.808 70.288C12.128 70.544 12.448 70.672 12.768 70.672H31.2C31.52 70.672 31.808 70.544 32.064 70.288C32.32 69.968 32.448 69.648 32.448 69.328V56.464C32.448 55.696 32.064 55.312 31.296 55.312H24.48C23.264 55.312 22.208 54.896 21.312 54.064C20.48 53.168 20.064 52.112 20.064 50.896V48.208C20.064 46.992 20.48 45.968 21.312 45.136C22.208 44.304 23.264 43.888 24.48 43.888H39.456C40.672 43.888 41.696 44.304 42.528 45.136C43.424 45.968 43.872 46.992 43.872 48.208V69.328Z" fill="#0084FF"/>
<path d="M119.384 81.44C114.664 81.44 110.557 80.2667 107.064 77.92C103.571 75.5733 100.851 72.1733 98.904 67.72C96.984 63.2667 96.024 57.8933 96.024 51.6C96.024 46.08 97.0773 41.2 99.184 36.96C101.291 32.6933 104.197 29.3467 107.904 26.92C111.637 24.4933 115.917 23.28 120.744 23.28C124.264 23.28 127.077 23.56 129.184 24.12C131.317 24.6533 132.971 25.3067 134.144 26.08C135.344 26.8533 136.291 27.5733 136.984 28.24L132.584 37.12C132.184 36.5867 131.557 35.9733 130.704 35.28C129.851 34.5867 128.637 33.9867 127.064 33.48C125.491 32.9733 123.437 32.72 120.904 32.72C118.211 32.72 115.797 33.5067 113.664 35.08C111.531 36.6533 109.837 38.84 108.584 41.64C107.357 44.44 106.744 47.68 106.744 51.36C106.744 58.0267 107.917 63.2133 110.264 66.92C112.611 70.6267 115.704 72.48 119.544 72.48C123.677 72.48 126.597 71.5067 128.304 69.56C130.037 67.5867 130.904 64.7467 130.904 61.04C130.904 60.4 130.877 59.68 130.824 58.88H119.384V50.08H140.264C140.397 51.3067 140.504 52.6267 140.584 54.04C140.691 55.4533 140.744 56.72 140.744 57.84C140.744 60.8533 140.451 63.7733 139.864 66.6C139.277 69.4267 138.211 71.96 136.664 74.2C135.117 76.4133 132.944 78.1733 130.144 79.48C127.371 80.7867 123.784 81.44 119.384 81.44ZM156.906 81.12C154.453 81.12 152.413 80.5733 150.786 79.48C149.186 78.3867 147.986 76.9333 147.186 75.12C146.413 73.3067 146.026 71.3067 146.026 69.12C146.026 67.8933 146.333 66.5467 146.946 65.08C147.586 63.6133 148.706 62.2133 150.306 60.88C151.906 59.5467 154.159 58.4533 157.066 57.6C159.973 56.7467 163.706 56.32 168.266 56.32V54.48C168.266 52.5067 167.786 50.8667 166.826 49.56C165.893 48.2533 163.999 47.6 161.146 47.6C159.066 47.6 157.026 47.96 155.026 48.68C153.053 49.3733 151.599 50.24 150.666 51.28L147.466 43.6C149.066 42.5067 151.199 41.5067 153.866 40.6C156.559 39.6667 159.546 39.2 162.826 39.2C166.773 39.2 169.839 39.8 172.026 41C174.213 42.2 175.746 43.9067 176.626 46.12C177.506 48.3067 177.946 50.88 177.946 53.84V80H169.386L168.666 74.32C165.893 78.8533 161.973 81.12 156.906 81.12ZM161.146 73.44C162.346 73.44 163.626 72.96 164.986 72C166.373 71.0133 167.466 69.76 168.266 68.24V62.56C167.999 62.5067 167.706 62.48 167.386 62.48C167.093 62.48 166.746 62.48 166.346 62.48C164.879 62.48 163.333 62.6533 161.706 63C160.106 63.32 158.746 63.8933 157.626 64.72C156.506 65.5467 155.946 66.6933 155.946 68.16C155.946 70.08 156.373 71.44 157.226 72.24C158.079 73.04 159.386 73.44 161.146 73.44ZM195.17 80L182.45 40.16H192.61L197.41 59.12L199.49 67.52L201.25 59.12L206.45 40.16H214.77L220.29 59.12L222.37 67.52L224.21 59.12L228.85 40.16H238.69L226.13 80H218.05L211.65 58.32L210.37 51.84L209.09 58.32L203.17 80H195.17ZM260.144 81.04C255.664 81.04 252.051 80.1067 249.304 78.24C246.557 76.3467 244.557 73.8533 243.304 70.76C242.051 67.64 241.424 64.24 241.424 60.56C241.424 56.6933 242.131 53.1467 243.544 49.92C244.984 46.6667 247.077 44.0667 249.824 42.12C252.597 40.1733 255.984 39.2 259.984 39.2C265.957 39.2 270.131 40.9333 272.504 44.4C274.877 47.84 276.064 52.72 276.064 59.04C276.064 59.6 276.051 60.3067 276.024 61.16C275.997 62.0133 275.957 62.7467 275.904 63.36H251.904C252.064 66.5067 252.944 68.9733 254.544 70.76C256.171 72.5467 258.597 73.44 261.824 73.44C263.477 73.44 265.251 73.08 267.144 72.36C269.037 71.6133 270.437 70.72 271.344 69.68L274.544 77.28C273.477 78 271.784 78.8133 269.464 79.72C267.171 80.6 264.064 81.04 260.144 81.04ZM251.824 57.12H265.904C265.904 54.32 265.651 52.1867 265.144 50.72C264.664 49.2267 263.997 48.2 263.144 47.64C262.291 47.08 261.317 46.8 260.224 46.8C257.504 46.8 255.464 47.8133 254.104 49.84C252.744 51.84 251.984 54.2667 251.824 57.12Z" fill="#0084FF"/>
<path d="M284.331 80V24.24H294.491V52L312.251 24.24H324.011L305.011 51.92L325.291 80H312.491L294.491 53.24V80H284.331ZM340.346 80.96C336.319 80.96 333.346 79.68 331.426 77.12C329.533 74.5333 328.586 70.9867 328.586 66.48V40.16H338.586V65.6C338.586 67.7867 338.986 69.5733 339.786 70.96C340.586 72.3467 341.946 73.04 343.866 73.04C345.759 73.04 347.333 72.3467 348.586 70.96C349.866 69.5733 350.506 67.7867 350.506 65.6V40.16H360.506V80H351.466L351.266 74.84C350.279 76.4133 348.933 77.8267 347.226 79.08C345.546 80.3333 343.253 80.96 340.346 80.96ZM374.111 95.12L380.591 77.28L365.631 40.16H376.751L382.671 57.92L385.231 67.12L387.791 57.92L393.791 40.16H404.271L383.951 95.12H374.111Z" fill="#F37D31"/>
</svg>
